<svg id="visual" viewBox="0 0 900 600" width="900" height="600" xmlns="http://www.w3.org/2000/svg" xmlns:xlink="http://www.w3.org/1999/xlink" version="1.1"><path d="M0 91L16.7 87C33.3 83 66.7 75 100 68C133.3 61 166.7 55 200 57C233.3 59 266.7 69 300 73C333.3 77 366.7 75 400 74C433.3 73 466.7 73 500 71C533.3 69 566.7 65 600 57C633.3 49 666.7 37 700 32C733.3 27 766.7 29 800 33C833.3 37 866.7 43 883.3 46L900 49L900 0L883.3 0C866.7 0 833.3 0 800 0C766.7 0 733.3 0 700 0C666.7 0 633.3 0 600 0C566.7 0 533.3 0 500 0C466.7 0 433.3 0 400 0C366.7 0 333.3 0 300 0C266.7 0 233.3 0 200 0C166.7 0 133.3 0 100 0C66.7 0 33.3 0 16.7 0L0 0Z" fill="##f4c4d4"></path><path d="M0 121L16.7 128C33.3 135 66.7 149 100 149C133.3 149 166.7 135 200 129C233.3 123 266.7 125 300 135C333.3 145 366.7 163 400 162C433.3 161 466.7 141 500 133C533.3 125 566.7 129 600 120C633.3 111 666.7 89 700 91C733.3 93 766.7 119 800 125C833.3 131 866.7 117 883.3 110L900 103L900 47L883.3 44C866.7 41 833.3 35 800 31C766.7 27 733.3 25 700 30C666.7 35 633.3 47 600 55C566.7 63 533.3 67 500 69C466.7 71 433.3 71 400 72C366.7 73 333.3 75 300 71C266.7 67 233.3 57 200 55C166.7 53 133.3 59 100 66C66.7 73 33.3 81 16.7 85L0 89Z" fill="##f4c4d4"></path><path d="M0 169L16.7 175C33.3 181 66.7 193 100 192C133.3 191 166.7 177 200 175C233.3 173 266.7 183 300 190C333.3 197 366.7 201 400 200C433.3 199 466.7 193 500 187C533.3 181 566.7 175 600 166C633.3 157 666.7 145 700 147C733.3 149 766.7 165 800 170C833.3 175 866.7 169 883.3 166L900 163L900 101L883.3 108C866.7 115 833.3 129 800 123C766.7 117 733.3 91 700 89C666.7 87 633.3 109 600 118C566.7 127 533.3 123 500 131C466.7 139 433.3 159 400 160C366.7 161 333.3 143 300 133C266.7 123 233.3 121 200 127C166.7 133 133.3 147 100 147C66.7 147 33.3 133 16.7 126L0 119Z" fill="##f4c4d4"></path><path d="M0 253L16.7 261C33.3 269 66.7 285 100 288C133.3 291 166.7 281 200 273C233.3 265 266.7 259 300 262C333.3 265 366.7 277 400 276C433.3 275 466.7 261 500 260C533.3 259 566.7 271 600 261C633.3 251 666.7 219 700 223C733.3 227 766.7 267 800 283C833.3 299 866.7 291 883.3 287L900 283L900 161L883.3 164C866.7 167 833.3 173 800 168C766.7 163 733.3 147 700 145C666.7 143 633.3 155 600 164C566.7 173 533.3 179 500 185C466.7 191 433.3 197 400 198C366.7 199 333.3 195 300 188C266.7 181 233.3 171 200 173C166.7 175 133.3 189 100 190C66.7 191 33.3 179 16.7 173L0 167Z" fill="##f4c4d4"></path><path d="M0 289L16.7 301C33.3 313 66.7 337 100 345C133.3 353 166.7 345 200 336C233.3 327 266.7 317 300 313C333.3 309 366.7 311 400 306C433.3 301 466.7 289 500 297C533.3 305 566.7 333 600 328C633.3 323 666.7 285 700 283C733.3 281 766.7 315 800 332C833.3 349 866.7 349 883.3 349L900 349L900 281L883.3 285C866.7 289 833.3 297 800 281C766.7 265 733.3 225 700 221C666.7 217 633.3 249 600 259C566.7 269 533.3 257 500 258C466.7 259 433.3 273 400 274C366.7 275 333.3 263 300 260C266.7 257 233.3 263 200 271C166.7 279 133.3 289 100 286C66.7 283 33.3 267 16.7 259L0 251Z" fill="##f4c4d4"></path><path d="M0 457L16.7 465C33.3 473 66.7 489 100 501C133.3 513 166.7 521 200 521C233.3 521 266.7 513 300 503C333.3 493 366.7 481 400 469C433.3 457 466.7 445 500 440C533.3 435 566.7 437 600 448C633.3 459 666.7 479 700 483C733.3 487 766.7 475 800 475C833.3 475 866.7 487 883.3 493L900 499L900 347L883.3 347C866.7 347 833.3 347 800 330C766.7 313 733.3 279 700 281C666.7 283 633.3 321 600 326C566.7 331 533.3 303 500 295C466.7 287 433.3 299 400 304C366.7 309 333.3 307 300 311C266.7 315 233.3 325 200 334C166.7 343 133.3 351 100 343C66.7 335 33.3 311 16.7 299L0 287Z" fill="##f4c4d4"></path><path d="M0 601L16.7 601C33.3 601 66.7 601 100 601C133.3 601 166.7 601 200 601C233.3 601 266.7 601 300 601C333.3 601 366.7 601 400 601C433.3 601 466.7 601 500 601C533.3 601 566.7 601 600 601C633.3 601 666.7 601 700 601C733.3 601 766.7 601 800 601C833.3 601 866.7 601 883.3 601L900 601L900 497L883.3 491C866.7 485 833.3 473 800 473C766.7 473 733.3 485 700 481C666.7 477 633.3 457 600 446C566.7 435 533.3 433 500 438C466.7 443 433.3 455 400 467C366.7 479 333.3 491 300 501C266.7 511 233.3 519 200 519C166.7 519 133.3 511 100 499C66.7 487 33.3 471 16.7 463L0 455Z" fill="##f4c4d4"></path></svg>